<mxfile host="Electron" agent="Mozilla/5.0 (Windows NT 10.0; Win64; x64) AppleWebKit/537.36 (KHTML, like Gecko) draw.io/26.0.16 Chrome/132.0.6834.196 Electron/34.2.0 Safari/537.36" version="26.0.16">
  <diagram name="WebAssembly Unified Frontend-Backend Architecture" id="architecture">
    <mxGraphModel dx="1036" dy="606" grid="1" gridSize="10" guides="1" tooltips="1" connect="1" arrows="1" fold="1" page="1" pageScale="1" pageWidth="2000" pageHeight="1400" math="0" shadow="0">
      <root>
        <mxCell id="0" />
        <mxCell id="1" parent="0" />
        <mxCell id="title" value="🏗️ WebAssembly Unified Frontend-Backend Architecture" style="text;html=1;strokeColor=none;fillColor=none;align=center;verticalAlign=middle;whiteSpace=wrap;rounded=0;fontSize=24;fontStyle=1;fontColor=#1a237e;" parent="1" vertex="1">
          <mxGeometry x="400" y="20" width="800" height="40" as="geometry" />
        </mxCell>
        <mxCell id="presentation-container" value="" style="rounded=1;whiteSpace=wrap;html=1;fillColor=#e8eaf6;strokeColor=#3f51b5;strokeWidth=3;" parent="1" vertex="1">
          <mxGeometry x="50" y="80" width="400" height="300" as="geometry" />
        </mxCell>
        <mxCell id="presentation-title" value="🎨 PRESENTATION LAYER" style="text;html=1;strokeColor=none;fillColor=none;align=center;verticalAlign=middle;whiteSpace=wrap;rounded=0;fontSize=18;fontStyle=1;fontColor=#3f51b5;" parent="1" vertex="1">
          <mxGeometry x="150" y="90" width="200" height="30" as="geometry" />
        </mxCell>
        <mxCell id="html-ui" value="🌐 User Interface&#xa;&#xa;• index.html&#xa;• Form elements&#xa;• Modal dialogs&#xa;• Loading states&#xa;• Error displays" style="rounded=1;whiteSpace=wrap;html=1;fillColor=#fff3e0;strokeColor=#e65100;" parent="1" vertex="1">
          <mxGeometry x="70" y="130" width="160" height="100" as="geometry" />
        </mxCell>
        <mxCell id="styling" value="🎨 Styling &amp; Design&#xa;&#xa;• app.css&#xa;• modal.css&#xa;• table.css&#xa;• Responsive design&#xa;• Themes" style="rounded=1;whiteSpace=wrap;html=1;fillColor=#f3e5f5;strokeColor=#9c27b0;" parent="1" vertex="1">
          <mxGeometry x="260" y="130" width="160" height="100" as="geometry" />
        </mxCell>
        <mxCell id="i18n" value="🌍 Internationalization&#xa;&#xa;• translations.js&#xa;• French/English&#xa;• Dynamic labels&#xa;• Form placeholders" style="rounded=1;whiteSpace=wrap;html=1;fillColor=#e0f2f1;strokeColor=#00695c;" parent="1" vertex="1">
          <mxGeometry x="70" y="250" width="160" height="100" as="geometry" />
        </mxCell>
        <mxCell id="interactions" value="👆 User Interactions&#xa;&#xa;• Form submission&#xa;• File uploads&#xa;• Field validation&#xa;• Error feedback" style="rounded=1;whiteSpace=wrap;html=1;fillColor=#fff8e1;strokeColor=#f57f17;" parent="1" vertex="1">
          <mxGeometry x="260" y="250" width="160" height="100" as="geometry" />
        </mxCell>
        <mxCell id="application-container" value="" style="rounded=1;whiteSpace=wrap;html=1;fillColor=#e1f5fe;strokeColor=#01579b;strokeWidth=3;" parent="1" vertex="1">
          <mxGeometry x="500" y="80" width="500" height="300" as="geometry" />
        </mxCell>
        <mxCell id="application-title" value="⚡ APPLICATION LAYER (WebAssembly)" style="text;html=1;strokeColor=none;fillColor=none;align=center;verticalAlign=middle;whiteSpace=wrap;rounded=0;fontSize=18;fontStyle=1;fontColor=#01579b;" parent="1" vertex="1">
          <mxGeometry x="600" y="90" width="300" height="30" as="geometry" />
        </mxCell>
        <mxCell id="form-management" value="📋 Form Management&#xa;&#xa;• FormHandler&#xa;• FormProcessor&#xa;• FormConfig&#xa;• Field coordination&#xa;• Validation pipeline" style="rounded=1;whiteSpace=wrap;html=1;fillColor=#e8f5e8;strokeColor=#2e7d32;" parent="1" vertex="1">
          <mxGeometry x="520" y="130" width="150" height="100" as="geometry" />
        </mxCell>
        <mxCell id="field-config" value="🎯 Field Configuration&#xa;&#xa;• FieldConfig&#xa;• FieldOption&#xa;• FieldType enum&#xa;• Select dropdowns&#xa;• Input validation" style="rounded=1;whiteSpace=wrap;html=1;fillColor=#fce4ec;strokeColor=#c2185b;" parent="1" vertex="1">
          <mxGeometry x="690" y="130" width="150" height="100" as="geometry" />
        </mxCell>
        <mxCell id="processing-pipeline" value="⚙️ Processing Pipeline&#xa;&#xa;• Data validation&#xa;• File handling&#xa;• Error management&#xa;• State management&#xa;• Event handling" style="rounded=1;whiteSpace=wrap;html=1;fillColor=#fff3e0;strokeColor=#e65100;" parent="1" vertex="1">
          <mxGeometry x="520" y="250" width="150" height="100" as="geometry" />
        </mxCell>
        <mxCell id="auto-refresh" value="🔄 Auto-Refresh System&#xa;&#xa;• RefreshScheduler&#xa;• RefreshHandler&#xa;• Periodic updates&#xa;• Health monitoring&#xa;• Background tasks" style="rounded=1;whiteSpace=wrap;html=1;fillColor=#f1f8e9;strokeColor=#33691e;" parent="1" vertex="1">
          <mxGeometry x="690" y="250" width="150" height="100" as="geometry" />
        </mxCell>
        <mxCell id="modal-system" value="🪟 Modal System&#xa;&#xa;• Success dialogs&#xa;• Error notifications&#xa;• Loading indicators&#xa;• User feedback" style="rounded=1;whiteSpace=wrap;html=1;fillColor=#f3e5f5;strokeColor=#7b1fa2;" parent="1" vertex="1">
          <mxGeometry x="860" y="130" width="120" height="100" as="geometry" />
        </mxCell>
        <mxCell id="cache-management" value="💾 Cache Management&#xa;&#xa;• Request caching&#xa;• State persistence&#xa;• Performance opt.&#xa;• Memory mgmt." style="rounded=1;whiteSpace=wrap;html=1;fillColor=#fafafa;strokeColor=#424242;" parent="1" vertex="1">
          <mxGeometry x="860" y="250" width="120" height="100" as="geometry" />
        </mxCell>
        <mxCell id="communication-container" value="" style="rounded=1;whiteSpace=wrap;html=1;fillColor=#fff8e1;strokeColor=#f57f17;strokeWidth=3;" parent="1" vertex="1">
          <mxGeometry x="1050" y="80" width="300" height="300" as="geometry" />
        </mxCell>
        <mxCell id="communication-title" value="📡 COMMUNICATION LAYER" style="text;html=1;strokeColor=none;fillColor=none;align=center;verticalAlign=middle;whiteSpace=wrap;rounded=0;fontSize=18;fontStyle=1;fontColor=#f57f17;" parent="1" vertex="1">
          <mxGeometry x="1100" y="90" width="200" height="30" as="geometry" />
        </mxCell>
        <mxCell id="http-client" value="🌐 HTTP Client&#xa;&#xa;• Request building&#xa;• FormData handling&#xa;• Response parsing&#xa;• Error handling&#xa;• Retry logic" style="rounded=1;whiteSpace=wrap;html=1;fillColor=#e1f5fe;strokeColor=#03a9f4;" parent="1" vertex="1">
          <mxGeometry x="1070" y="130" width="120" height="100" as="geometry" />
        </mxCell>
        <mxCell id="api-contracts" value="📋 API Contracts&#xa;&#xa;• POST /api/form&#xa;• POST /api/ping&#xa;• JSON schemas&#xa;• Response formats" style="rounded=1;whiteSpace=wrap;html=1;fillColor=#e8f5e8;strokeColor=#388e3c;" parent="1" vertex="1">
          <mxGeometry x="1210" y="130" width="120" height="100" as="geometry" />
        </mxCell>
        <mxCell id="protocol-handling" value="🔗 Protocol Handling&#xa;&#xa;• Multipart forms&#xa;• File uploads&#xa;• CORS handling&#xa;• Headers mgmt." style="rounded=1;whiteSpace=wrap;html=1;fillColor=#fce4ec;strokeColor=#e91e63;" parent="1" vertex="1">
          <mxGeometry x="1070" y="250" width="120" height="100" as="geometry" />
        </mxCell>
        <mxCell id="network-resilience" value="🛡️ Network Resilience&#xa;&#xa;• Connection monitoring&#xa;• Timeout handling&#xa;• Offline support&#xa;• Error recovery" style="rounded=1;whiteSpace=wrap;html=1;fillColor=#ffebee;strokeColor=#c62828;" parent="1" vertex="1">
          <mxGeometry x="1210" y="250" width="120" height="100" as="geometry" />
        </mxCell>
        <mxCell id="server-container" value="" style="rounded=1;whiteSpace=wrap;html=1;fillColor=#fff3e0;strokeColor=#e65100;strokeWidth=3;" parent="1" vertex="1">
          <mxGeometry x="1400" y="80" width="550" height="300" as="geometry" />
        </mxCell>
        <mxCell id="server-title" value="🚀 SERVER LAYER (Rust/Axum)" style="text;html=1;strokeColor=none;fillColor=none;align=center;verticalAlign=middle;whiteSpace=wrap;rounded=0;fontSize=18;fontStyle=1;fontColor=#e65100;" parent="1" vertex="1">
          <mxGeometry x="1550" y="90" width="250" height="30" as="geometry" />
        </mxCell>
        <mxCell id="web-infrastructure" value="🌐 Web Infrastructure&#xa;&#xa;• Axum web server&#xa;• Tokio async runtime&#xa;• HTTP routing&#xa;• Middleware stack&#xa;• Static file serving" style="rounded=1;whiteSpace=wrap;html=1;fillColor=#e3f2fd;strokeColor=#1976d2;" parent="1" vertex="1">
          <mxGeometry x="1420" y="130" width="150" height="100" as="geometry" />
        </mxCell>
        <mxCell id="controllers-layer" value="🎮 Controllers Layer&#xa;&#xa;• FormController&#xa;• PingController&#xa;• Request routing&#xa;• Response formatting&#xa;• Error handling" style="rounded=1;whiteSpace=wrap;html=1;fillColor=#f3e5f5;strokeColor=#7b1fa2;" parent="1" vertex="1">
          <mxGeometry x="1590" y="130" width="150" height="100" as="geometry" />
        </mxCell>
        <mxCell id="business-logic" value="⚡ Business Logic&#xa;&#xa;• Form processing&#xa;• File upload handling&#xa;• Data validation&#xa;• Response generation&#xa;• Error management" style="rounded=1;whiteSpace=wrap;html=1;fillColor=#fce4ec;strokeColor=#e91e63;" parent="1" vertex="1">
          <mxGeometry x="1420" y="250" width="150" height="100" as="geometry" />
        </mxCell>
        <mxCell id="api-layer" value="🔗 API Layer&#xa;&#xa;• REST endpoints&#xa;• Multipart handling&#xa;• CORS configuration&#xa;• Request validation&#xa;• Response serialization" style="rounded=1;whiteSpace=wrap;html=1;fillColor=#e0f2f1;strokeColor=#00796b;" parent="1" vertex="1">
          <mxGeometry x="1590" y="250" width="150" height="100" as="geometry" />
        </mxCell>
        <mxCell id="server-config" value="⚙️ Configuration&#xa;&#xa;• Server settings&#xa;• CORS policies&#xa;• Static paths&#xa;• Environment vars" style="rounded=1;whiteSpace=wrap;html=1;fillColor=#fafafa;strokeColor=#616161;" parent="1" vertex="1">
          <mxGeometry x="1770" y="130" width="150" height="100" as="geometry" />
        </mxCell>
        <mxCell id="security-monitoring" value="🛡️ Security &amp; Monitoring&#xa;&#xa;• Request validation&#xa;• File type checking&#xa;• Health endpoints&#xa;• Error tracking" style="rounded=1;whiteSpace=wrap;html=1;fillColor=#ffebee;strokeColor=#c62828;" parent="1" vertex="1">
          <mxGeometry x="1770" y="250" width="150" height="100" as="geometry" />
        </mxCell>
        <mxCell id="data-container" value="" style="rounded=1;whiteSpace=wrap;html=1;fillColor=#e8f5e8;strokeColor=#2e7d32;strokeWidth=3;" parent="1" vertex="1">
          <mxGeometry x="50" y="420" width="400" height="200" as="geometry" />
        </mxCell>
        <mxCell id="data-title" value="🗄️ DATA LAYER" style="text;html=1;strokeColor=none;fillColor=none;align=center;verticalAlign=middle;whiteSpace=wrap;rounded=0;fontSize=18;fontStyle=1;fontColor=#2e7d32;" parent="1" vertex="1">
          <mxGeometry x="150" y="430" width="200" height="30" as="geometry" />
        </mxCell>
        <mxCell id="data-models" value="📊 Data Models&#xa;&#xa;• FormResponse&#xa;• HTTP models&#xa;• User models&#xa;• Validation schemas&#xa;• Serialization" style="rounded=1;whiteSpace=wrap;html=1;fillColor=#fff3e0;strokeColor=#e65100;" parent="1" vertex="1">
          <mxGeometry x="70" y="470" width="150" height="120" as="geometry" />
        </mxCell>
        <mxCell id="storage-management" value="💾 Storage Management&#xa;&#xa;• File system storage&#xa;• Upload directories&#xa;• File validation&#xa;• Cleanup procedures&#xa;• Path management" style="rounded=1;whiteSpace=wrap;html=1;fillColor=#f1f8e9;strokeColor=#689f38;" parent="1" vertex="1">
          <mxGeometry x="270" y="470" width="150" height="120" as="geometry" />
        </mxCell>
        <mxCell id="core-container" value="" style="rounded=1;whiteSpace=wrap;html=1;fillColor=#fff8e1;strokeColor=#fbc02d;strokeWidth=3;" parent="1" vertex="1">
          <mxGeometry x="500" y="420" width="400" height="200" as="geometry" />
        </mxCell>
        <mxCell id="core-title" value="🔧 CORE LIBRARY" style="text;html=1;strokeColor=none;fillColor=none;align=center;verticalAlign=middle;whiteSpace=wrap;rounded=0;fontSize=18;fontStyle=1;fontColor=#fbc02d;" parent="1" vertex="1">
          <mxGeometry x="600" y="430" width="200" height="30" as="geometry" />
        </mxCell>
        <mxCell id="shared-utilities" value="🛠️ Shared Utilities&#xa;&#xa;• Error handling&#xa;• Configuration mgmt&#xa;• Common types&#xa;• Helper functions&#xa;• Constants" style="rounded=1;whiteSpace=wrap;html=1;fillColor=#e1f5fe;strokeColor=#03a9f4;" parent="1" vertex="1">
          <mxGeometry x="520" y="470" width="150" height="120" as="geometry" />
        </mxCell>
        <mxCell id="database-layer" value="🗃️ Database Layer&#xa;&#xa;• Database models&#xa;• Migrations&#xa;• Query builders&#xa;• Connection pooling&#xa;• Transaction mgmt" style="rounded=1;whiteSpace=wrap;html=1;fillColor=#f3e5f5;strokeColor=#9c27b0;" parent="1" vertex="1">
          <mxGeometry x="720" y="470" width="150" height="120" as="geometry" />
        </mxCell>
        <mxCell id="field-types-container" value="" style="rounded=1;whiteSpace=wrap;html=1;fillColor=#fce4ec;strokeColor=#c2185b;strokeWidth=3;" parent="1" vertex="1">
          <mxGeometry x="950" y="420" width="450" height="200" as="geometry" />
        </mxCell>
        <mxCell id="field-types-title" value="🎯 FIELD TYPES &amp; CONFIGURATION" style="text;html=1;strokeColor=none;fillColor=none;align=center;verticalAlign=middle;whiteSpace=wrap;rounded=0;fontSize=18;fontStyle=1;fontColor=#c2185b;" parent="1" vertex="1">
          <mxGeometry x="1050" y="430" width="250" height="30" as="geometry" />
        </mxCell>
        <mxCell id="field-configurations" value="⚙️ Field Configurations&#xa;&#xa;• login (text + required)&#xa;• email (email + validation)&#xa;• sexe (select + options)&#xa;• birthday (date + required)&#xa;• files (file upload)&#xa;• age (number + validation)" style="rounded=1;whiteSpace=wrap;html=1;fillColor=#fff3e0;strokeColor=#e65100;" parent="1" vertex="1">
          <mxGeometry x="970" y="470" width="180" height="120" as="geometry" />
        </mxCell>
        <mxCell id="field-options" value="📋 Field Options&#xa;&#xa;• Sexe options:&#xa;  - Sélectionnez...&#xa;  - Homme&#xa;  - Femme&#xa;  - Autre&#xa;• Placeholders&#xa;• Default values&#xa;• Required flags" style="rounded=1;whiteSpace=wrap;html=1;fillColor=#f1f8e9;strokeColor=#689f38;" parent="1" vertex="1">
          <mxGeometry x="1190" y="470" width="180" height="120" as="geometry" />
        </mxCell>
        <mxCell id="flow-container" value="" style="rounded=1;whiteSpace=wrap;html=1;fillColor=#f9fbe7;strokeColor=#827717;strokeWidth=3;" parent="1" vertex="1">
          <mxGeometry x="1450" y="420" width="500" height="200" as="geometry" />
        </mxCell>
        <mxCell id="flow-title" value="🔄 SYSTEM FLOW &amp; INTERACTIONS" style="text;html=1;strokeColor=none;fillColor=none;align=center;verticalAlign=middle;whiteSpace=wrap;rounded=0;fontSize=18;fontStyle=1;fontColor=#827717;" parent="1" vertex="1">
          <mxGeometry x="1550" y="430" width="300" height="30" as="geometry" />
        </mxCell>
        <mxCell id="request-flow" value="📥 Request Flow&#xa;&#xa;1. User fills form&#xa;2. Client validation&#xa;3. HTTP POST request&#xa;4. Server processing&#xa;5. Response generation&#xa;6. Success modal" style="rounded=1;whiteSpace=wrap;html=1;fillColor=#e1f5fe;strokeColor=#03a9f4;" parent="1" vertex="1">
          <mxGeometry x="1470" y="470" width="150" height="120" as="geometry" />
        </mxCell>
        <mxCell id="refresh-flow" value="🔄 Auto-Refresh Flow&#xa;&#xa;1. Timer starts (30s)&#xa;2. Periodic ping&#xa;3. Health check&#xa;4. Status update&#xa;5. Continuous monitoring" style="rounded=1;whiteSpace=wrap;html=1;fillColor=#fff8e1;strokeColor=#f57f17;" parent="1" vertex="1">
          <mxGeometry x="1670" y="470" width="150" height="120" as="geometry" />
        </mxCell>
        <mxCell id="error-flow" value="⚠️ Error Handling Flow&#xa;&#xa;1. Error detection&#xa;2. User notification&#xa;3. Retry logic&#xa;4. Fallback strategies&#xa;5. Recovery procedures" style="rounded=1;whiteSpace=wrap;html=1;fillColor=#ffebee;strokeColor=#c62828;" parent="1" vertex="1">
          <mxGeometry x="1850" y="470" width="150" height="120" as="geometry" />
        </mxCell>
        <mxCell id="relation1" style="edgeStyle=orthogonalEdgeStyle;rounded=0;orthogonalLoop=1;jettySize=auto;html=1;strokeWidth=3;strokeColor=#3f51b5;fillColor=#c5cae9;" parent="1" source="presentation-container" target="application-container" edge="1">
          <mxGeometry relative="1" as="geometry" />
        </mxCell>
        <mxCell id="relation2" style="edgeStyle=orthogonalEdgeStyle;rounded=0;orthogonalLoop=1;jettySize=auto;html=1;strokeWidth=3;strokeColor=#01579b;fillColor=#b3e5fc;" parent="1" source="application-container" target="communication-container" edge="1">
          <mxGeometry relative="1" as="geometry" />
        </mxCell>
        <mxCell id="relation3" style="edgeStyle=orthogonalEdgeStyle;rounded=0;orthogonalLoop=1;jettySize=auto;html=1;strokeWidth=3;strokeColor=#f57f17;fillColor=#ffcc80;" parent="1" source="communication-container" target="server-container" edge="1">
          <mxGeometry relative="1" as="geometry" />
        </mxCell>
        <mxCell id="relation4" style="edgeStyle=orthogonalEdgeStyle;rounded=0;orthogonalLoop=1;jettySize=auto;html=1;strokeWidth=2;strokeColor=#2e7d32;fillColor=#c8e6c9;" parent="1" source="field-config" target="field-types-container" edge="1">
          <mxGeometry relative="1" as="geometry" />
        </mxCell>
        <mxCell id="relation5" style="edgeStyle=orthogonalEdgeStyle;rounded=0;orthogonalLoop=1;jettySize=auto;html=1;strokeWidth=2;strokeColor=#e65100;fillColor=#ffcc80;" parent="1" source="business-logic" target="data-container" edge="1">
          <mxGeometry relative="1" as="geometry">
            <Array as="points">
              <mxPoint x="1495" y="390" />
              <mxPoint x="250" y="390" />
            </Array>
          </mxGeometry>
        </mxCell>
        <mxCell id="relation6" style="edgeStyle=orthogonalEdgeStyle;rounded=0;orthogonalLoop=1;jettySize=auto;html=1;strokeWidth=2;strokeColor=#e65100;fillColor=#ffcc80;" parent="1" source="server-container" target="core-container" edge="1">
          <mxGeometry relative="1" as="geometry">
            <Array as="points">
              <mxPoint x="1675" y="400" />
              <mxPoint x="700" y="400" />
            </Array>
          </mxGeometry>
        </mxCell>
        <mxCell id="user-flow-container" value="" style="rounded=1;whiteSpace=wrap;html=1;fillColor=#f9fbe7;strokeColor=#827717;strokeWidth=3;" parent="1" vertex="1">
          <mxGeometry x="50" y="660" width="1900" height="200" as="geometry" />
        </mxCell>
        <mxCell id="user-flow-title" value="👤 DETAILED USER INTERACTION FLOW" style="text;html=1;strokeColor=none;fillColor=none;align=center;verticalAlign=middle;whiteSpace=wrap;rounded=0;fontSize=18;fontStyle=1;fontColor=#827717;" parent="1" vertex="1">
          <mxGeometry x="800" y="670" width="400" height="30" as="geometry" />
        </mxCell>
        <mxCell id="step1" value="1️⃣ Page Load&#xa;127.0.0.1:8088&#xa;📁 index.html&#xa;📁 app.css&#xa;📁 translations.js" style="rounded=1;whiteSpace=wrap;html=1;fillColor=#e8eaf6;strokeColor=#3f51b5;" parent="1" vertex="1">
          <mxGeometry x="70" y="710" width="100" height="120" as="geometry" />
        </mxCell>
        <mxCell id="step2" value="2️⃣ WASM Init&#xa;FormHandler&#xa;📁 client.js&#xa;📁 client_bg.wasm&#xa;📁 form/form_handler.rs" style="rounded=1;whiteSpace=wrap;html=1;fillColor=#e0f2f1;strokeColor=#4caf50;" parent="1" vertex="1">
          <mxGeometry x="190" y="710" width="100" height="120" as="geometry" />
        </mxCell>
        <mxCell id="step3" value="3️⃣ Field Config&#xa;Select Options&#xa;📁 form/form_config.rs&#xa;📁 form/form_field.rs&#xa;📁 form/form_utilities.rs" style="rounded=1;whiteSpace=wrap;html=1;fillColor=#fce4ec;strokeColor=#e91e63;" parent="1" vertex="1">
          <mxGeometry x="310" y="710" width="100" height="120" as="geometry" />
        </mxCell>
        <mxCell id="step4" value="4️⃣ User Input&#xa;Form Fill&#xa;📁 index.html&#xa;📁 form/form_handler.rs&#xa;📁 modal.rs" style="rounded=1;whiteSpace=wrap;html=1;fillColor=#f3e5f5;strokeColor=#9c27b0;" parent="1" vertex="1">
          <mxGeometry x="430" y="710" width="100" height="120" as="geometry" />
        </mxCell>
        <mxCell id="step5" value="5️⃣ Validation&#xa;Client-side&#xa;📁 form/form_validation.rs&#xa;📁 form/form_core.rs&#xa;📁 form/form_handler.rs" style="rounded=1;whiteSpace=wrap;html=1;fillColor=#e1f5fe;strokeColor=#03a9f4;" parent="1" vertex="1">
          <mxGeometry x="550" y="710" width="100" height="120" as="geometry" />
        </mxCell>
        <mxCell id="step6" value="6️⃣ HTTP POST&#xa;/api/form&#xa;📁 client_request.rs&#xa;📁 client_tools.rs&#xa;📁 form/form_cache.rs" style="rounded=1;whiteSpace=wrap;html=1;fillColor=#f1f8e9;strokeColor=#8bc34a;" parent="1" vertex="1">
          <mxGeometry x="670" y="710" width="100" height="120" as="geometry" />
        </mxCell>
        <mxCell id="step7" value="7️⃣ Server Proc&#xa;Validation&#xa;📁 form_controller.rs&#xa;📁 extract_form.rs&#xa;📁 main.rs" style="rounded=1;whiteSpace=wrap;html=1;fillColor=#fff8e1;strokeColor=#ffc107;" parent="1" vertex="1">
          <mxGeometry x="790" y="710" width="100" height="120" as="geometry" />
        </mxCell>
        <mxCell id="step8" value="8️⃣ File Storage&#xa;Data Persist&#xa;📁 extract_form.rs&#xa;📁 /storage/files/&#xa;📁 form_response.rs" style="rounded=1;whiteSpace=wrap;html=1;fillColor=#efebe9;strokeColor=#795548;" parent="1" vertex="1">
          <mxGeometry x="910" y="710" width="100" height="120" as="geometry" />
        </mxCell>
        <mxCell id="step9" value="9️⃣ Response&#xa;JSON Return&#xa;📁 form_controller.rs&#xa;📁 http_responses.rs&#xa;📁 form_response.rs" style="rounded=1;whiteSpace=wrap;html=1;fillColor=#e8f5e8;strokeColor=#4caf50;" parent="1" vertex="1">
          <mxGeometry x="1030" y="710" width="100" height="120" as="geometry" />
        </mxCell>
        <mxCell id="step10" value="🔟 Success Modal&#xa;User Feedback&#xa;📁 modal.rs&#xa;📁 modal.css&#xa;📁 form/form_handler.rs" style="rounded=1;whiteSpace=wrap;html=1;fillColor=#e8f5e8;strokeColor=#4caf50;" parent="1" vertex="1">
          <mxGeometry x="1150" y="710" width="100" height="120" as="geometry" />
        </mxCell>
        <mxCell id="refresh1" value="🔄 Timer Start&#xa;30s Interval&#xa;📁 refresh_scheduler.rs&#xa;📁 auto_refresh.rs&#xa;📁 client_tools.rs" style="rounded=1;whiteSpace=wrap;html=1;fillColor=#fff3e0;strokeColor=#ff9800;" parent="1" vertex="1">
          <mxGeometry x="1290" y="710" width="100" height="120" as="geometry" />
        </mxCell>
        <mxCell id="refresh2" value="🔄 Health Ping&#xa;/api/ping&#xa;📁 client_request.rs&#xa;📁 health_check.rs&#xa;📁 main.rs" style="rounded=1;whiteSpace=wrap;html=1;fillColor=#e1f5fe;strokeColor=#03a9f4;" parent="1" vertex="1">
          <mxGeometry x="1410" y="710" width="100" height="120" as="geometry" />
        </mxCell>
        <mxCell id="refresh3" value="🔄 Status Check&#xa;Monitoring&#xa;📁 status_monitor.rs&#xa;📁 health_check.rs&#xa;📁 refresh_scheduler.rs" style="rounded=1;whiteSpace=wrap;html=1;fillColor=#e8f5e8;strokeColor=#4caf50;" parent="1" vertex="1">
          <mxGeometry x="1530" y="710" width="100" height="120" as="geometry" />
        </mxCell>
        <mxCell id="error1" value="⚠️ Error Detect&#xa;Validation Fail&#xa;📁 form/errors.rs&#xa;📁 validation/improved.rs&#xa;📁 error_handler.rs" style="rounded=1;whiteSpace=wrap;html=1;fillColor=#ffebee;strokeColor=#c62828;" parent="1" vertex="1">
          <mxGeometry x="1670" y="710" width="100" height="120" as="geometry" />
        </mxCell>
        <mxCell id="error2" value="⚠️ User Notify&#xa;Error Modal&#xa;📁 modal.rs&#xa;📁 modal.css&#xa;📁 error_display.rs" style="rounded=1;whiteSpace=wrap;html=1;fillColor=#ffebee;strokeColor=#c62828;" parent="1" vertex="1">
          <mxGeometry x="1790" y="710" width="100" height="120" as="geometry" />
        </mxCell>
        <mxCell id="flow-arrow1" style="edgeStyle=orthogonalEdgeStyle;rounded=0;orthogonalLoop=1;jettySize=auto;html=1;strokeWidth=2;strokeColor=#1976d2;" parent="1" source="step1" target="step2" edge="1">
          <mxGeometry relative="1" as="geometry" />
        </mxCell>
        <mxCell id="flow-arrow2" style="edgeStyle=orthogonalEdgeStyle;rounded=0;orthogonalLoop=1;jettySize=auto;html=1;strokeWidth=2;strokeColor=#1976d2;" parent="1" source="step2" target="step3" edge="1">
          <mxGeometry relative="1" as="geometry" />
        </mxCell>
        <mxCell id="flow-arrow3" style="edgeStyle=orthogonalEdgeStyle;rounded=0;orthogonalLoop=1;jettySize=auto;html=1;strokeWidth=2;strokeColor=#1976d2;" parent="1" source="step3" target="step4" edge="1">
          <mxGeometry relative="1" as="geometry" />
        </mxCell>
        <mxCell id="flow-arrow4" style="edgeStyle=orthogonalEdgeStyle;rounded=0;orthogonalLoop=1;jettySize=auto;html=1;strokeWidth=2;strokeColor=#1976d2;" parent="1" source="step4" target="step5" edge="1">
          <mxGeometry relative="1" as="geometry" />
        </mxCell>
        <mxCell id="flow-arrow5" style="edgeStyle=orthogonalEdgeStyle;rounded=0;orthogonalLoop=1;jettySize=auto;html=1;strokeWidth=2;strokeColor=#1976d2;" parent="1" source="step5" target="step6" edge="1">
          <mxGeometry relative="1" as="geometry" />
        </mxCell>
        <mxCell id="flow-arrow6" style="edgeStyle=orthogonalEdgeStyle;rounded=0;orthogonalLoop=1;jettySize=auto;html=1;strokeWidth=2;strokeColor=#1976d2;" parent="1" source="step6" target="step7" edge="1">
          <mxGeometry relative="1" as="geometry" />
        </mxCell>
        <mxCell id="flow-arrow7" style="edgeStyle=orthogonalEdgeStyle;rounded=0;orthogonalLoop=1;jettySize=auto;html=1;strokeWidth=2;strokeColor=#1976d2;" parent="1" source="step7" target="step8" edge="1">
          <mxGeometry relative="1" as="geometry" />
        </mxCell>
        <mxCell id="flow-arrow8" style="edgeStyle=orthogonalEdgeStyle;rounded=0;orthogonalLoop=1;jettySize=auto;html=1;strokeWidth=2;strokeColor=#1976d2;" parent="1" source="step8" target="step9" edge="1">
          <mxGeometry relative="1" as="geometry" />
        </mxCell>
        <mxCell id="flow-arrow9" style="edgeStyle=orthogonalEdgeStyle;rounded=0;orthogonalLoop=1;jettySize=auto;html=1;strokeWidth=2;strokeColor=#1976d2;" parent="1" source="step9" target="step10" edge="1">
          <mxGeometry relative="1" as="geometry" />
        </mxCell>
        <mxCell id="refresh-arrow1" style="edgeStyle=orthogonalEdgeStyle;rounded=0;orthogonalLoop=1;jettySize=auto;html=1;strokeWidth=2;strokeColor=#ff9800;" parent="1" source="refresh1" target="refresh2" edge="1">
          <mxGeometry relative="1" as="geometry" />
        </mxCell>
        <mxCell id="refresh-arrow2" style="edgeStyle=orthogonalEdgeStyle;rounded=0;orthogonalLoop=1;jettySize=auto;html=1;strokeWidth=2;strokeColor=#ff9800;" parent="1" source="refresh2" target="refresh3" edge="1">
          <mxGeometry relative="1" as="geometry" />
        </mxCell>
        <mxCell id="error-arrow1" style="edgeStyle=orthogonalEdgeStyle;rounded=0;orthogonalLoop=1;jettySize=auto;html=1;strokeWidth=2;strokeColor=#c62828;" parent="1" source="error1" target="error2" edge="1">
          <mxGeometry relative="1" as="geometry" />
        </mxCell>
        <mxCell id="tech-container" value="" style="rounded=1;whiteSpace=wrap;html=1;fillColor=#fafafa;strokeColor=#424242;strokeWidth=2;" parent="1" vertex="1">
          <mxGeometry x="50" y="900" width="600" height="200" as="geometry" />
        </mxCell>
        <mxCell id="tech-title" value="⚙️ TECHNICAL STACK &amp; FEATURES" style="text;html=1;strokeColor=none;fillColor=none;align=center;verticalAlign=middle;whiteSpace=wrap;rounded=0;fontSize=16;fontStyle=1;fontColor=#424242;" parent="1" vertex="1">
          <mxGeometry x="150" y="910" width="400" height="30" as="geometry" />
        </mxCell>
        <mxCell id="frontend-tech" value="🎨 Frontend Stack&#xa;&#xa;• Rust + WebAssembly&#xa;• web-sys bindings&#xa;• JavaScript interop&#xa;• HTML5/CSS3&#xa;• Modern UI components" style="rounded=1;whiteSpace=wrap;html=1;fillColor=#e8eaf6;strokeColor=#3f51b5;" parent="1" vertex="1">
          <mxGeometry x="70" y="950" width="170" height="120" as="geometry" />
        </mxCell>
        <mxCell id="backend-tech" value="🚀 Backend Stack&#xa;&#xa;• Rust + Axum&#xa;• Tokio async runtime&#xa;• Serde serialization&#xa;• Multipart forms&#xa;• File handling" style="rounded=1;whiteSpace=wrap;html=1;fillColor=#fff3e0;strokeColor=#e65100;" parent="1" vertex="1">
          <mxGeometry x="260" y="950" width="170" height="120" as="geometry" />
        </mxCell>
        <mxCell id="key-features" value="✨ Key Features&#xa;&#xa;• Field configuration&#xa;• Select with options&#xa;• File upload support&#xa;• Auto-refresh system&#xa;• Modal notifications&#xa;• Error handling&#xa;• Validation framework" style="rounded=1;whiteSpace=wrap;html=1;fillColor=#e8f5e8;strokeColor=#2e7d32;" parent="1" vertex="1">
          <mxGeometry x="450" y="950" width="170" height="120" as="geometry" />
        </mxCell>
        <mxCell id="legend-container" value="" style="rounded=1;whiteSpace=wrap;html=1;fillColor=#f5f5f5;strokeColor=#9e9e9e;strokeWidth=2;" parent="1" vertex="1">
          <mxGeometry x="700" y="900" width="400" height="200" as="geometry" />
        </mxCell>
        <mxCell id="legend-title" value="📋 ARCHITECTURE LEGEND" style="text;html=1;strokeColor=none;fillColor=none;align=center;verticalAlign=middle;whiteSpace=wrap;rounded=0;fontSize=16;fontStyle=1;fontColor=#9e9e9e;" parent="1" vertex="1">
          <mxGeometry x="750" y="910" width="300" height="30" as="geometry" />
        </mxCell>
        <mxCell id="legend-content" value="🎨 Presentation Layer (UI/UX)&#xa;⚡ Application Layer (Business Logic)&#xa;📡 Communication Layer (HTTP/API)&#xa;🚀 Server Layer (Infrastructure)&#xa;🗄️ Data Layer (Models/Storage)&#xa;🔧 Core Library (Shared Utilities)&#xa;🎯 Field Configuration (Forms)&#xa;🔄 System Flows (Interactions)" style="rounded=1;whiteSpace=wrap;html=1;fillColor=#ffffff;strokeColor=#bdbdbd;align=left;" parent="1" vertex="1">
          <mxGeometry x="720" y="950" width="360" height="120" as="geometry" />
        </mxCell>
        <mxCell id="data-example-container" value="" style="rounded=1;whiteSpace=wrap;html=1;fillColor=#fffde7;strokeColor=#f57f17;strokeWidth=2;" parent="1" vertex="1">
          <mxGeometry x="1150" y="900" width="400" height="200" as="geometry" />
        </mxCell>
        <mxCell id="example-data-title" value="📊 EXAMPLE DATA FLOW" style="text;html=1;strokeColor=none;fillColor=none;align=center;verticalAlign=middle;whiteSpace=wrap;rounded=0;fontSize=16;fontStyle=1;fontColor=#f57f17;" parent="1" vertex="1">
          <mxGeometry x="1200" y="910" width="300" height="30" as="geometry" />
        </mxCell>
        <mxCell id="form-data-example" value="📝 Form Input:&#xa;• login: john_doe&#xa;• email: john@example.com&#xa;• sexe: homme&#xa;• birthday: 1990-01-01&#xa;• age: 35&#xa;• files: profile.png" style="rounded=1;whiteSpace=wrap;html=1;fillColor=#fff8e1;strokeColor=#fbc02d;align=left;" parent="1" vertex="1">
          <mxGeometry x="1170" y="950" width="170" height="120" as="geometry" />
        </mxCell>
        <mxCell id="server-response-example" value="📤 Server Response:&#xa;{&#xa;  &quot;status&quot;: 200,&#xa;  &quot;message&quot;: &quot;Success&quot;,&#xa;  &quot;data&quot;: {&#xa;    &quot;form_fields&quot;: {...},&#xa;    &quot;files&quot;: [...]&#xa;  }&#xa;}" style="rounded=1;whiteSpace=wrap;html=1;fillColor=#f3e5f5;strokeColor=#9c27b0;align=left;" parent="1" vertex="1">
          <mxGeometry x="1360" y="950" width="170" height="120" as="geometry" />
        </mxCell>
        <mxCell id="performance-container" value="" style="rounded=1;whiteSpace=wrap;html=1;fillColor=#e3f2fd;strokeColor=#1976d2;strokeWidth=2;" parent="1" vertex="1">
          <mxGeometry x="1600" y="900" width="350" height="200" as="geometry" />
        </mxCell>
        <mxCell id="performance-title" value="⚡ PERFORMANCE &amp; MONITORING" style="text;html=1;strokeColor=none;fillColor=none;align=center;verticalAlign=middle;whiteSpace=wrap;rounded=0;fontSize=16;fontStyle=1;fontColor=#1976d2;" parent="1" vertex="1">
          <mxGeometry x="1650" y="910" width="250" height="30" as="geometry" />
        </mxCell>
        <mxCell id="performance-metrics" value="📈 Performance Metrics:&#xa;&#xa;• WebAssembly load time&#xa;• Form submission latency&#xa;• File upload speed&#xa;• Auto-refresh intervals&#xa;• Error recovery time&#xa;• Memory usage&#xa;• Network efficiency" style="rounded=1;whiteSpace=wrap;html=1;fillColor=#e1f5fe;strokeColor=#03a9f4;align=left;" parent="1" vertex="1">
          <mxGeometry x="1620" y="950" width="310" height="120" as="geometry" />
        </mxCell>
      </root>
    </mxGraphModel>
  </diagram>
</mxfile>
